# xmcd
# 
# Track frame offsets:
#     150
#     27850
#     42299
#     63332
#     85297
#     105802
#     118979
#     133337
#     154401
#     173337
# 
# Disc length: 2405
# 
# Revision: 2
# Processed by: cddbd v1.5.2PL0 Copyright (c) Steve Scherf et al.
# Submitted via: fre:ac v1.0.31
# 
DISCID=7d09630a
DTITLE=Margo Price - Midwest Farmer's Daughter
DYEAR=2016
DGENRE=Country
TTITLE0=Hands of Time
TTITLE1=About to Find Out
TTITLE2=Tennessee Song
TTITLE3=Since You Put Me Down
TTITLE4=Four Years of Chances
TTITLE5=This Town Gets Around
TTITLE6=How the Mighty Have Fallen
TTITLE7=Weekender
TTITLE8=Hurtin' (On the Bottle)
TTITLE9=World's Greatest Loser
EXTD=
EXTT0=
EXTT1=
EXTT2=
EXTT3=
EXTT4=
EXTT5=
EXTT6=
EXTT7=
EXTT8=
EXTT9=
PLAYORDER=
